<?xml version="1.0" encoding="UTF-8"?>
<svg width="640" height="480" xmlns="http://www.w3.org/2000/svg" xmlns:xlink="http://www.w3.org/1999/xlink">

 <g class="layer">
  <g id="svg_1">
   <path fill="#fff" d="m587.07,43.77l-44.47,0l0,-36.93l-11.31,3.77c-138.69,43.72 -279.64,43.72 -418.33,0l-11.31,-3.77l0,36.93l-80.65,0l0,431.9l603,0l0,-431.9l-36.93,0zm-255.52,16.58c64.82,-0.75 129.65,-10.55 194.47,-30.15l0,402.5c-64.82,15.83 -129.65,24.87 -194.47,25.63l0,-397.98zm-212.56,-29.4c64.82,19.6 129.65,29.4 194.47,30.15l0,397.23c-64.82,-0.75 -129.65,-9.05 -194.47,-25.63l0,-401.75zm-80.65,427.38l0,-397.23l18.84,0l0,397.23l-18.84,0zm36.93,-397.23l26.38,0l0,385.17l6.78,1.51c15.08,3.77 29.4,7.54 44.47,10.55l-77.64,0l0,-397.23zm416.82,397.23c15.08,-3.02 29.4,-6.03 44.47,-10.55l6.78,-1.51l0,-385.17l26.38,0l0,397.23l-77.64,0zm114.57,0l-18.84,0l0,-397.23l18.84,0l0,397.23z" />
  </g>
 </g>
</svg>