<?xml version="1.0" encoding="utf-8"?>
<!-- Generator: Adobe Illustrator 24.0.3, SVG Export Plug-In . SVG Version: 6.00 Build 0)  -->
<svg version="1.1" id="Layer_1" xmlns="http://www.w3.org/2000/svg" xmlns:xlink="http://www.w3.org/1999/xlink" x="0px" y="0px"
	 viewBox="0 0 24 24" style="enable-background:new 0 0 24 24;" xml:space="preserve">
<style type="text/css">
	.st0{fill:none;}
	.st1{fill:#FFFFFF;}
</style>
<path class="st0" d="M0,0h24v24H0V0z"/>
<path class="st1" d="M12,6.5c3.8,0,7.2,2.1,8.8,5.5c-1.6,3.4-5,5.5-8.8,5.5S4.8,15.4,3.2,12C4.8,8.6,8.2,6.5,12,6.5 M12,4.5
	C7,4.5,2.7,7.6,1,12c1.7,4.4,6,7.5,11,7.5s9.3-3.1,11-7.5C21.3,7.6,17,4.5,12,4.5z M12,9c1.7,0,3,1.4,3,3s-1.4,3-3,3s-3-1.4-3-3
	S10.3,9,12,9"/>
</svg>
