<?xml version="1.0" encoding="UTF-8"?>
<svg width="89px" height="75px" viewBox="0 0 89 75" version="1.1" xmlns="http://www.w3.org/2000/svg" xmlns:xlink="http://www.w3.org/1999/xlink">
    <title>account-check-outline (1)</title>
    <g id="Wise-Proctor" stroke="none" stroke-width="1" fill="none" fill-rule="evenodd">
        <g id="2.-Wise-Proctor-Instructor-Main" transform="translate(-1490.000000, -1459.000000)" fill="#FFFFFF" fill-rule="nonzero">
            <g id="Group-2" transform="translate(611.000000, 1355.000000)">
                <g id="account-check-outline-(1)" transform="translate(879.000000, 104.000000)">
                    <path d="M82.6102564,38.6363636 L89,45.0454545 L59.1964103,75 L43.3589744,59.0909091 L49.7487179,52.6818182 L59.1964103,62.1363636 L82.6102564,38.6363636 M36.5128205,0 C46.5955575,0 54.7692308,8.14027728 54.7692308,18.1818182 C54.7692308,28.2233591 46.5955575,36.3636364 36.5128205,36.3636364 C26.4300835,36.3636364 18.2564103,28.2233591 18.2564103,18.1818182 C18.2564103,8.14027728 26.4300835,0 36.5128205,0 M36.5128205,9.09090909 C31.471452,9.09090909 27.3846154,13.1610477 27.3846154,18.1818182 C27.3846154,23.2025886 31.471452,27.2727273 36.5128205,27.2727273 C41.554189,27.2727273 45.6410256,23.2025886 45.6410256,18.1818182 C45.6410256,13.1610477 41.554189,9.09090909 36.5128205,9.09090909 M36.5128205,40.9090909 C39.6164103,40.9090909 43.3589744,41.3181818 47.5123077,42.0909091 L39.8902564,49.6818182 L36.5128205,49.5454545 C22.9574359,49.5454545 8.67179487,56.1818182 8.67179487,59.0909091 L8.67179487,64.0909091 L36.9692308,64.0909091 L45.6410256,72.7272727 L0,72.7272727 L0,59.0909091 C0,47 24.3266667,40.9090909 36.5128205,40.9090909 Z" id="Shape"></path>
                </g>
            </g>
        </g>
    </g>
</svg>