<?xml version="1.0" encoding="utf-8"?>
<!-- Generator: Adobe Illustrator 24.0.3, SVG Export Plug-In . SVG Version: 6.00 Build 0)  -->
<svg version="1.1" id="Capa_1" xmlns="http://www.w3.org/2000/svg" xmlns:xlink="http://www.w3.org/1999/xlink" x="0px" y="0px"
	 viewBox="0 0 512 512" style="enable-background:new 0 0 512 512;" xml:space="preserve">
<style type="text/css">
	.st0{fill:#FFFFFF;}
</style>
<g>
	<g>
		<path class="st0" d="M380,133.5L268,5.5C265,2,260.6,0,256,0s-9,2-12,5.5l-112,128c-4.1,4.7-5.2,11.4-2.5,17.2
			c2.6,5.7,8.3,9.4,14.6,9.4h64v208c0,8.8,7.2,16,16,16h64c8.8,0,16-7.2,16-16V160h64c6.3,0,12-3.6,14.6-9.4
			C385.2,144.9,384.2,138.2,380,133.5z"/>
	</g>
</g>
<g>
	<g>
		<path class="st0" d="M432,352v96H80v-96H16v128c0,17.7,14.3,32,32,32h416c17.7,0,32-14.3,32-32V352H432z"/>
	</g>
</g>
</svg>
